<mxfile host="Electron" modified="2024-06-26T09:48:55.341Z" agent="Mozilla/5.0 (X11; Linux x86_64) AppleWebKit/537.36 (KHTML, like Gecko) draw.io/24.5.3 Chrome/124.0.6367.207 Electron/30.0.6 Safari/537.36" etag="1DybdNa8vU0fyhhPI3uJ" version="24.5.3" type="device">
  <diagram name="Page-1" id="FBLkSqFh269wKpTBDvCI">
    <mxGraphModel dx="1350" dy="829" grid="1" gridSize="10" guides="1" tooltips="1" connect="1" arrows="1" fold="1" page="1" pageScale="1" pageWidth="850" pageHeight="1100" math="0" shadow="0">
      <root>
        <mxCell id="0" />
        <mxCell id="1" parent="0" />
        <mxCell id="kAha-PZA5OasBBAv1SlI-3" value="SDSPI" style="rounded=0;whiteSpace=wrap;html=1;verticalAlign=bottom;fontSize=18;fontStyle=1;strokeWidth=3;" vertex="1" parent="1">
          <mxGeometry x="40" y="200" width="160" height="160" as="geometry" />
        </mxCell>
        <mxCell id="kAha-PZA5OasBBAv1SlI-4" value="UART" style="rounded=0;whiteSpace=wrap;html=1;verticalAlign=bottom;fontSize=18;fontStyle=1;strokeWidth=3;" vertex="1" parent="1">
          <mxGeometry x="240" y="200" width="160" height="160" as="geometry" />
        </mxCell>
        <mxCell id="kAha-PZA5OasBBAv1SlI-6" value="VERA" style="rounded=0;whiteSpace=wrap;html=1;verticalAlign=bottom;fontSize=18;fontStyle=1;strokeWidth=3;" vertex="1" parent="1">
          <mxGeometry x="440" y="200" width="160" height="160" as="geometry" />
        </mxCell>
        <mxCell id="kAha-PZA5OasBBAv1SlI-8" value="USB HID 0" style="rounded=0;whiteSpace=wrap;html=1;verticalAlign=bottom;fontSize=18;fontStyle=1;strokeWidth=3;" vertex="1" parent="1">
          <mxGeometry x="640" y="200" width="160" height="160" as="geometry" />
        </mxCell>
        <mxCell id="kAha-PZA5OasBBAv1SlI-10" value="USB HID 1" style="rounded=0;whiteSpace=wrap;html=1;verticalAlign=bottom;fontSize=18;fontStyle=1;strokeWidth=3;" vertex="1" parent="1">
          <mxGeometry x="840" y="200" width="160" height="160" as="geometry" />
        </mxCell>
        <mxCell id="kAha-PZA5OasBBAv1SlI-13" value="" style="rounded=0;whiteSpace=wrap;html=1;" vertex="1" parent="1">
          <mxGeometry x="420" y="80" width="40" height="40" as="geometry" />
        </mxCell>
        <mxCell id="kAha-PZA5OasBBAv1SlI-14" value="" style="rounded=0;whiteSpace=wrap;html=1;" vertex="1" parent="1">
          <mxGeometry x="460" y="80" width="40" height="40" as="geometry" />
        </mxCell>
        <mxCell id="kAha-PZA5OasBBAv1SlI-15" value="" style="rounded=0;whiteSpace=wrap;html=1;" vertex="1" parent="1">
          <mxGeometry x="500" y="80" width="40" height="40" as="geometry" />
        </mxCell>
        <mxCell id="kAha-PZA5OasBBAv1SlI-16" value="" style="rounded=0;whiteSpace=wrap;html=1;" vertex="1" parent="1">
          <mxGeometry x="540" y="80" width="40" height="40" as="geometry" />
        </mxCell>
        <mxCell id="kAha-PZA5OasBBAv1SlI-17" value="" style="rounded=0;whiteSpace=wrap;html=1;" vertex="1" parent="1">
          <mxGeometry x="580" y="80" width="40" height="40" as="geometry" />
        </mxCell>
        <mxCell id="kAha-PZA5OasBBAv1SlI-18" value="" style="endArrow=classic;html=1;rounded=0;exitX=0.5;exitY=0;exitDx=0;exitDy=0;entryX=0.5;entryY=1;entryDx=0;entryDy=0;edgeStyle=orthogonalEdgeStyle;" edge="1" parent="1" source="kAha-PZA5OasBBAv1SlI-3" target="kAha-PZA5OasBBAv1SlI-13">
          <mxGeometry width="50" height="50" relative="1" as="geometry">
            <mxPoint x="400" y="210" as="sourcePoint" />
            <mxPoint x="450" y="160" as="targetPoint" />
          </mxGeometry>
        </mxCell>
        <mxCell id="kAha-PZA5OasBBAv1SlI-19" value="" style="endArrow=classic;html=1;rounded=0;exitX=0.5;exitY=0;exitDx=0;exitDy=0;entryX=0.5;entryY=1;entryDx=0;entryDy=0;edgeStyle=orthogonalEdgeStyle;" edge="1" parent="1" source="kAha-PZA5OasBBAv1SlI-5" target="kAha-PZA5OasBBAv1SlI-14">
          <mxGeometry width="50" height="50" relative="1" as="geometry">
            <mxPoint x="510" y="190" as="sourcePoint" />
            <mxPoint x="560" y="140" as="targetPoint" />
            <Array as="points">
              <mxPoint x="320" y="180" />
              <mxPoint x="480" y="180" />
            </Array>
          </mxGeometry>
        </mxCell>
        <mxCell id="kAha-PZA5OasBBAv1SlI-20" value="" style="endArrow=classic;html=1;rounded=0;entryX=0.5;entryY=1;entryDx=0;entryDy=0;" edge="1" parent="1" target="kAha-PZA5OasBBAv1SlI-15">
          <mxGeometry width="50" height="50" relative="1" as="geometry">
            <mxPoint x="520" y="200" as="sourcePoint" />
            <mxPoint x="570" y="150" as="targetPoint" />
          </mxGeometry>
        </mxCell>
        <mxCell id="kAha-PZA5OasBBAv1SlI-21" value="" style="endArrow=classic;html=1;rounded=0;exitX=0.5;exitY=0;exitDx=0;exitDy=0;entryX=0.5;entryY=1;entryDx=0;entryDy=0;edgeStyle=orthogonalEdgeStyle;" edge="1" parent="1" source="kAha-PZA5OasBBAv1SlI-9" target="kAha-PZA5OasBBAv1SlI-16">
          <mxGeometry width="50" height="50" relative="1" as="geometry">
            <mxPoint x="760" y="150" as="sourcePoint" />
            <mxPoint x="810" y="100" as="targetPoint" />
            <Array as="points">
              <mxPoint x="720" y="180" />
              <mxPoint x="560" y="180" />
            </Array>
          </mxGeometry>
        </mxCell>
        <mxCell id="kAha-PZA5OasBBAv1SlI-22" value="" style="endArrow=classic;html=1;rounded=0;exitX=0.5;exitY=0;exitDx=0;exitDy=0;entryX=0.5;entryY=1;entryDx=0;entryDy=0;edgeStyle=orthogonalEdgeStyle;" edge="1" parent="1" source="kAha-PZA5OasBBAv1SlI-11" target="kAha-PZA5OasBBAv1SlI-17">
          <mxGeometry width="50" height="50" relative="1" as="geometry">
            <mxPoint x="800" y="140" as="sourcePoint" />
            <mxPoint x="850" y="90" as="targetPoint" />
          </mxGeometry>
        </mxCell>
        <mxCell id="kAha-PZA5OasBBAv1SlI-1" value="Ibex CPU" style="rounded=0;whiteSpace=wrap;html=1;fontSize=18;fontStyle=1;strokeWidth=3;" vertex="1" parent="1">
          <mxGeometry x="420" y="40" width="200" height="80" as="geometry" />
        </mxCell>
        <mxCell id="kAha-PZA5OasBBAv1SlI-30" value="" style="group;fontStyle=1" vertex="1" connectable="0" parent="1">
          <mxGeometry x="80" y="220" width="70" height="80" as="geometry" />
        </mxCell>
        <mxCell id="kAha-PZA5OasBBAv1SlI-23" value="" style="rounded=0;whiteSpace=wrap;html=1;" vertex="1" parent="kAha-PZA5OasBBAv1SlI-30">
          <mxGeometry x="10" width="20" height="20" as="geometry" />
        </mxCell>
        <mxCell id="kAha-PZA5OasBBAv1SlI-24" value="" style="endArrow=classic;html=1;rounded=0;entryX=0.5;entryY=1;entryDx=0;entryDy=0;" edge="1" parent="kAha-PZA5OasBBAv1SlI-30" target="kAha-PZA5OasBBAv1SlI-23">
          <mxGeometry width="50" height="50" relative="1" as="geometry">
            <mxPoint x="20" y="40" as="sourcePoint" />
            <mxPoint x="80" y="50" as="targetPoint" />
          </mxGeometry>
        </mxCell>
        <mxCell id="kAha-PZA5OasBBAv1SlI-25" value="" style="rounded=0;whiteSpace=wrap;html=1;" vertex="1" parent="kAha-PZA5OasBBAv1SlI-30">
          <mxGeometry x="30" width="20" height="20" as="geometry" />
        </mxCell>
        <mxCell id="kAha-PZA5OasBBAv1SlI-26" value="" style="endArrow=classic;html=1;rounded=0;entryX=0.5;entryY=1;entryDx=0;entryDy=0;" edge="1" parent="kAha-PZA5OasBBAv1SlI-30" target="kAha-PZA5OasBBAv1SlI-25">
          <mxGeometry width="50" height="50" relative="1" as="geometry">
            <mxPoint x="40" y="40" as="sourcePoint" />
            <mxPoint x="100" y="50" as="targetPoint" />
          </mxGeometry>
        </mxCell>
        <mxCell id="kAha-PZA5OasBBAv1SlI-27" value="&lt;b&gt;Edge Triggered IRQ Events&lt;/b&gt;" style="text;html=1;align=center;verticalAlign=middle;whiteSpace=wrap;rounded=0;" vertex="1" parent="kAha-PZA5OasBBAv1SlI-30">
          <mxGeometry y="50" width="70" height="30" as="geometry" />
        </mxCell>
        <mxCell id="kAha-PZA5OasBBAv1SlI-28" value="" style="rounded=0;whiteSpace=wrap;html=1;dashed=1;" vertex="1" parent="kAha-PZA5OasBBAv1SlI-30">
          <mxGeometry x="50" width="20" height="20" as="geometry" />
        </mxCell>
        <mxCell id="kAha-PZA5OasBBAv1SlI-29" value="" style="endArrow=classic;html=1;rounded=0;entryX=0.5;entryY=1;entryDx=0;entryDy=0;dashed=1;" edge="1" parent="kAha-PZA5OasBBAv1SlI-30" target="kAha-PZA5OasBBAv1SlI-28">
          <mxGeometry width="50" height="50" relative="1" as="geometry">
            <mxPoint x="60" y="40" as="sourcePoint" />
            <mxPoint x="110" y="-10" as="targetPoint" />
          </mxGeometry>
        </mxCell>
        <mxCell id="kAha-PZA5OasBBAv1SlI-2" value="miniEdgeIC" style="rounded=0;whiteSpace=wrap;html=1;fontStyle=1;strokeWidth=3;" vertex="1" parent="1">
          <mxGeometry x="80" y="200" width="80" height="40" as="geometry" />
        </mxCell>
        <mxCell id="kAha-PZA5OasBBAv1SlI-32" value="" style="group" vertex="1" connectable="0" parent="1">
          <mxGeometry x="280" y="220" width="70" height="80" as="geometry" />
        </mxCell>
        <mxCell id="kAha-PZA5OasBBAv1SlI-34" value="" style="endArrow=classic;html=1;rounded=0;entryX=0.5;entryY=1;entryDx=0;entryDy=0;" edge="1" parent="kAha-PZA5OasBBAv1SlI-32" target="kAha-PZA5OasBBAv1SlI-33">
          <mxGeometry width="50" height="50" relative="1" as="geometry">
            <mxPoint x="20" y="40" as="sourcePoint" />
            <mxPoint x="80" y="50" as="targetPoint" />
          </mxGeometry>
        </mxCell>
        <mxCell id="kAha-PZA5OasBBAv1SlI-36" value="" style="endArrow=classic;html=1;rounded=0;entryX=0.5;entryY=1;entryDx=0;entryDy=0;" edge="1" parent="kAha-PZA5OasBBAv1SlI-32" target="kAha-PZA5OasBBAv1SlI-35">
          <mxGeometry width="50" height="50" relative="1" as="geometry">
            <mxPoint x="40" y="40" as="sourcePoint" />
            <mxPoint x="100" y="50" as="targetPoint" />
          </mxGeometry>
        </mxCell>
        <mxCell id="kAha-PZA5OasBBAv1SlI-37" value="&lt;b&gt;Edge Triggered IRQ Events&lt;/b&gt;" style="text;html=1;align=center;verticalAlign=middle;whiteSpace=wrap;rounded=0;" vertex="1" parent="kAha-PZA5OasBBAv1SlI-32">
          <mxGeometry y="50" width="70" height="30" as="geometry" />
        </mxCell>
        <mxCell id="kAha-PZA5OasBBAv1SlI-39" value="" style="endArrow=classic;html=1;rounded=0;entryX=0.5;entryY=1;entryDx=0;entryDy=0;dashed=1;" edge="1" parent="kAha-PZA5OasBBAv1SlI-32" target="kAha-PZA5OasBBAv1SlI-38">
          <mxGeometry width="50" height="50" relative="1" as="geometry">
            <mxPoint x="60" y="40" as="sourcePoint" />
            <mxPoint x="110" y="-10" as="targetPoint" />
          </mxGeometry>
        </mxCell>
        <mxCell id="kAha-PZA5OasBBAv1SlI-33" value="" style="rounded=0;whiteSpace=wrap;html=1;" vertex="1" parent="kAha-PZA5OasBBAv1SlI-32">
          <mxGeometry x="10" width="20" height="20" as="geometry" />
        </mxCell>
        <mxCell id="kAha-PZA5OasBBAv1SlI-35" value="" style="rounded=0;whiteSpace=wrap;html=1;" vertex="1" parent="kAha-PZA5OasBBAv1SlI-32">
          <mxGeometry x="30" width="20" height="20" as="geometry" />
        </mxCell>
        <mxCell id="kAha-PZA5OasBBAv1SlI-38" value="" style="rounded=0;whiteSpace=wrap;html=1;dashed=1;" vertex="1" parent="kAha-PZA5OasBBAv1SlI-32">
          <mxGeometry x="50" width="20" height="20" as="geometry" />
        </mxCell>
        <mxCell id="kAha-PZA5OasBBAv1SlI-40" value="" style="group" vertex="1" connectable="0" parent="1">
          <mxGeometry x="480" y="220" width="70" height="80" as="geometry" />
        </mxCell>
        <mxCell id="kAha-PZA5OasBBAv1SlI-42" value="" style="endArrow=classic;html=1;rounded=0;entryX=0.5;entryY=1;entryDx=0;entryDy=0;" edge="1" parent="kAha-PZA5OasBBAv1SlI-40" target="kAha-PZA5OasBBAv1SlI-41">
          <mxGeometry width="50" height="50" relative="1" as="geometry">
            <mxPoint x="20" y="40" as="sourcePoint" />
            <mxPoint x="80" y="50" as="targetPoint" />
          </mxGeometry>
        </mxCell>
        <mxCell id="kAha-PZA5OasBBAv1SlI-44" value="" style="endArrow=classic;html=1;rounded=0;entryX=0.5;entryY=1;entryDx=0;entryDy=0;" edge="1" parent="kAha-PZA5OasBBAv1SlI-40" target="kAha-PZA5OasBBAv1SlI-43">
          <mxGeometry width="50" height="50" relative="1" as="geometry">
            <mxPoint x="40" y="40" as="sourcePoint" />
            <mxPoint x="100" y="50" as="targetPoint" />
          </mxGeometry>
        </mxCell>
        <mxCell id="kAha-PZA5OasBBAv1SlI-45" value="&lt;b&gt;Edge Triggered IRQ Events&lt;/b&gt;" style="text;html=1;align=center;verticalAlign=middle;whiteSpace=wrap;rounded=0;" vertex="1" parent="kAha-PZA5OasBBAv1SlI-40">
          <mxGeometry y="50" width="70" height="30" as="geometry" />
        </mxCell>
        <mxCell id="kAha-PZA5OasBBAv1SlI-47" value="" style="endArrow=classic;html=1;rounded=0;entryX=0.5;entryY=1;entryDx=0;entryDy=0;dashed=1;" edge="1" parent="kAha-PZA5OasBBAv1SlI-40" target="kAha-PZA5OasBBAv1SlI-46">
          <mxGeometry width="50" height="50" relative="1" as="geometry">
            <mxPoint x="60" y="40" as="sourcePoint" />
            <mxPoint x="110" y="-10" as="targetPoint" />
          </mxGeometry>
        </mxCell>
        <mxCell id="kAha-PZA5OasBBAv1SlI-41" value="" style="rounded=0;whiteSpace=wrap;html=1;" vertex="1" parent="kAha-PZA5OasBBAv1SlI-40">
          <mxGeometry x="10" width="20" height="20" as="geometry" />
        </mxCell>
        <mxCell id="kAha-PZA5OasBBAv1SlI-43" value="" style="rounded=0;whiteSpace=wrap;html=1;" vertex="1" parent="kAha-PZA5OasBBAv1SlI-40">
          <mxGeometry x="30" width="20" height="20" as="geometry" />
        </mxCell>
        <mxCell id="kAha-PZA5OasBBAv1SlI-46" value="" style="rounded=0;whiteSpace=wrap;html=1;dashed=1;" vertex="1" parent="kAha-PZA5OasBBAv1SlI-40">
          <mxGeometry x="50" width="20" height="20" as="geometry" />
        </mxCell>
        <mxCell id="kAha-PZA5OasBBAv1SlI-48" value="" style="group" vertex="1" connectable="0" parent="1">
          <mxGeometry x="680" y="220" width="70" height="80" as="geometry" />
        </mxCell>
        <mxCell id="kAha-PZA5OasBBAv1SlI-50" value="" style="endArrow=classic;html=1;rounded=0;entryX=0.5;entryY=1;entryDx=0;entryDy=0;" edge="1" parent="kAha-PZA5OasBBAv1SlI-48" target="kAha-PZA5OasBBAv1SlI-49">
          <mxGeometry width="50" height="50" relative="1" as="geometry">
            <mxPoint x="20" y="40" as="sourcePoint" />
            <mxPoint x="80" y="50" as="targetPoint" />
          </mxGeometry>
        </mxCell>
        <mxCell id="kAha-PZA5OasBBAv1SlI-52" value="" style="endArrow=classic;html=1;rounded=0;entryX=0.5;entryY=1;entryDx=0;entryDy=0;" edge="1" parent="kAha-PZA5OasBBAv1SlI-48" target="kAha-PZA5OasBBAv1SlI-51">
          <mxGeometry width="50" height="50" relative="1" as="geometry">
            <mxPoint x="40" y="40" as="sourcePoint" />
            <mxPoint x="100" y="50" as="targetPoint" />
          </mxGeometry>
        </mxCell>
        <mxCell id="kAha-PZA5OasBBAv1SlI-53" value="&lt;b&gt;Edge Triggered IRQ Events&lt;/b&gt;" style="text;html=1;align=center;verticalAlign=middle;whiteSpace=wrap;rounded=0;" vertex="1" parent="kAha-PZA5OasBBAv1SlI-48">
          <mxGeometry y="50" width="70" height="30" as="geometry" />
        </mxCell>
        <mxCell id="kAha-PZA5OasBBAv1SlI-55" value="" style="endArrow=classic;html=1;rounded=0;entryX=0.5;entryY=1;entryDx=0;entryDy=0;dashed=1;" edge="1" parent="kAha-PZA5OasBBAv1SlI-48" target="kAha-PZA5OasBBAv1SlI-54">
          <mxGeometry width="50" height="50" relative="1" as="geometry">
            <mxPoint x="60" y="40" as="sourcePoint" />
            <mxPoint x="110" y="-10" as="targetPoint" />
          </mxGeometry>
        </mxCell>
        <mxCell id="kAha-PZA5OasBBAv1SlI-49" value="" style="rounded=0;whiteSpace=wrap;html=1;" vertex="1" parent="kAha-PZA5OasBBAv1SlI-48">
          <mxGeometry x="10" width="20" height="20" as="geometry" />
        </mxCell>
        <mxCell id="kAha-PZA5OasBBAv1SlI-51" value="" style="rounded=0;whiteSpace=wrap;html=1;" vertex="1" parent="kAha-PZA5OasBBAv1SlI-48">
          <mxGeometry x="30" width="20" height="20" as="geometry" />
        </mxCell>
        <mxCell id="kAha-PZA5OasBBAv1SlI-54" value="" style="rounded=0;whiteSpace=wrap;html=1;dashed=1;" vertex="1" parent="kAha-PZA5OasBBAv1SlI-48">
          <mxGeometry x="50" width="20" height="20" as="geometry" />
        </mxCell>
        <mxCell id="kAha-PZA5OasBBAv1SlI-56" value="" style="group" vertex="1" connectable="0" parent="1">
          <mxGeometry x="880" y="220" width="70" height="80" as="geometry" />
        </mxCell>
        <mxCell id="kAha-PZA5OasBBAv1SlI-58" value="" style="endArrow=classic;html=1;rounded=0;entryX=0.5;entryY=1;entryDx=0;entryDy=0;" edge="1" parent="kAha-PZA5OasBBAv1SlI-56" target="kAha-PZA5OasBBAv1SlI-57">
          <mxGeometry width="50" height="50" relative="1" as="geometry">
            <mxPoint x="20" y="40" as="sourcePoint" />
            <mxPoint x="80" y="50" as="targetPoint" />
          </mxGeometry>
        </mxCell>
        <mxCell id="kAha-PZA5OasBBAv1SlI-60" value="" style="endArrow=classic;html=1;rounded=0;entryX=0.5;entryY=1;entryDx=0;entryDy=0;" edge="1" parent="kAha-PZA5OasBBAv1SlI-56" target="kAha-PZA5OasBBAv1SlI-59">
          <mxGeometry width="50" height="50" relative="1" as="geometry">
            <mxPoint x="40" y="40" as="sourcePoint" />
            <mxPoint x="100" y="50" as="targetPoint" />
          </mxGeometry>
        </mxCell>
        <mxCell id="kAha-PZA5OasBBAv1SlI-61" value="&lt;b&gt;Edge Triggered IRQ Events&lt;/b&gt;" style="text;html=1;align=center;verticalAlign=middle;whiteSpace=wrap;rounded=0;" vertex="1" parent="kAha-PZA5OasBBAv1SlI-56">
          <mxGeometry y="50" width="70" height="30" as="geometry" />
        </mxCell>
        <mxCell id="kAha-PZA5OasBBAv1SlI-63" value="" style="endArrow=classic;html=1;rounded=0;entryX=0.5;entryY=1;entryDx=0;entryDy=0;dashed=1;" edge="1" parent="kAha-PZA5OasBBAv1SlI-56" target="kAha-PZA5OasBBAv1SlI-62">
          <mxGeometry width="50" height="50" relative="1" as="geometry">
            <mxPoint x="60" y="40" as="sourcePoint" />
            <mxPoint x="110" y="-10" as="targetPoint" />
          </mxGeometry>
        </mxCell>
        <mxCell id="kAha-PZA5OasBBAv1SlI-57" value="" style="rounded=0;whiteSpace=wrap;html=1;" vertex="1" parent="kAha-PZA5OasBBAv1SlI-56">
          <mxGeometry x="10" width="20" height="20" as="geometry" />
        </mxCell>
        <mxCell id="kAha-PZA5OasBBAv1SlI-59" value="" style="rounded=0;whiteSpace=wrap;html=1;" vertex="1" parent="kAha-PZA5OasBBAv1SlI-56">
          <mxGeometry x="30" width="20" height="20" as="geometry" />
        </mxCell>
        <mxCell id="kAha-PZA5OasBBAv1SlI-62" value="" style="rounded=0;whiteSpace=wrap;html=1;dashed=1;" vertex="1" parent="kAha-PZA5OasBBAv1SlI-56">
          <mxGeometry x="50" width="20" height="20" as="geometry" />
        </mxCell>
        <mxCell id="kAha-PZA5OasBBAv1SlI-5" value="miniEdgeIC" style="rounded=0;whiteSpace=wrap;html=1;fontStyle=1;strokeWidth=3;" vertex="1" parent="1">
          <mxGeometry x="280" y="200" width="80" height="40" as="geometry" />
        </mxCell>
        <mxCell id="kAha-PZA5OasBBAv1SlI-7" value="miniEdgeIC" style="rounded=0;whiteSpace=wrap;html=1;fontStyle=1;strokeWidth=3;" vertex="1" parent="1">
          <mxGeometry x="480" y="200" width="80" height="40" as="geometry" />
        </mxCell>
        <mxCell id="kAha-PZA5OasBBAv1SlI-9" value="miniEdgeIC" style="rounded=0;whiteSpace=wrap;html=1;fontStyle=1;strokeWidth=3;" vertex="1" parent="1">
          <mxGeometry x="680" y="200" width="80" height="40" as="geometry" />
        </mxCell>
        <mxCell id="kAha-PZA5OasBBAv1SlI-11" value="miniEdgeIC" style="rounded=0;whiteSpace=wrap;html=1;fontStyle=1;strokeWidth=3;" vertex="1" parent="1">
          <mxGeometry x="880" y="200" width="80" height="40" as="geometry" />
        </mxCell>
        <mxCell id="kAha-PZA5OasBBAv1SlI-64" value="Level Sensitive IRQs&amp;nbsp;" style="endArrow=classic;html=1;rounded=0;fontSize=18;fontStyle=1" edge="1" parent="1">
          <mxGeometry x="-1" width="50" height="50" relative="1" as="geometry">
            <mxPoint x="300" y="130" as="sourcePoint" />
            <mxPoint x="410" y="130" as="targetPoint" />
            <mxPoint as="offset" />
          </mxGeometry>
        </mxCell>
      </root>
    </mxGraphModel>
  </diagram>
</mxfile>
